<svg xmlns="http://www.w3.org/2000/svg" width="15.846" height="15.846" viewBox="0 0 15.846 15.846">
  <path id="Icon_awesome-phone-alt" data-name="Icon awesome-phone-alt" d="M15.394,11.2,11.927,9.712a.743.743,0,0,0-.867.214L9.526,11.8A11.472,11.472,0,0,1,4.042,6.317L5.917,4.782a.741.741,0,0,0,.214-.867L4.645.449a.748.748,0,0,0-.851-.43L.576.762A.743.743,0,0,0,0,1.486a14.359,14.359,0,0,0,14.36,14.36.743.743,0,0,0,.724-.576l.743-3.219a.752.752,0,0,0-.434-.854Z" transform="translate(0 0)" fill="#004a9b"/>
</svg>
