<svg xmlns="http://www.w3.org/2000/svg" width="17.385" height="17.384" viewBox="0 0 17.385 17.384">
  <path id="Icon_awesome-linkedin-in" data-name="Icon awesome-linkedin-in" d="M3.891,17.385H.287V5.778h3.6ZM2.087,4.2A2.1,2.1,0,1,1,4.175,2.088,2.1,2.1,0,0,1,2.087,4.2Zm15.293,13.19h-3.6v-5.65c0-1.347-.027-3.073-1.874-3.073-1.874,0-2.161,1.463-2.161,2.976v5.747h-3.6V5.778H9.606V7.362h.05a3.787,3.787,0,0,1,3.41-1.874c3.648,0,4.318,2.4,4.318,5.522v6.376Z" transform="translate(0 0)" fill="#004a9b"/>
</svg>
