<svg xmlns="http://www.w3.org/2000/svg" width="17.369" height="12.024" viewBox="0 0 17.369 12.024">
  <g id="Icon_ionic-ios-mail" data-name="Icon ionic-ios-mail" transform="translate(-3.375 -7.875)">
    <path id="Path_16" data-name="Path 16" d="M20.6,10.339l-4.492,4.576a.081.081,0,0,0,0,.117l3.144,3.348a.542.542,0,0,1,0,.768.544.544,0,0,1-.768,0l-3.131-3.336a.086.086,0,0,0-.121,0l-.764.777a3.362,3.362,0,0,1-2.4,1.01,3.429,3.429,0,0,1-2.447-1.04l-.735-.747a.086.086,0,0,0-.121,0L5.638,19.149a.544.544,0,0,1-.768,0,.542.542,0,0,1,0-.768l3.144-3.348a.089.089,0,0,0,0-.117l-4.5-4.576a.082.082,0,0,0-.142.058v9.156A1.34,1.34,0,0,0,4.711,20.89h14.7a1.34,1.34,0,0,0,1.336-1.336V10.4A.084.084,0,0,0,20.6,10.339Z" transform="translate(0 -0.991)" fill="#004a9b"/>
    <path id="Path_17" data-name="Path 17" d="M12.4,15.52a2.27,2.27,0,0,0,1.632-.685l6.551-6.668a1.312,1.312,0,0,0-.827-.292H5.052a1.3,1.3,0,0,0-.827.292l6.551,6.668A2.27,2.27,0,0,0,12.4,15.52Z" transform="translate(-0.346)" fill="#004a9b"/>
  </g>
</svg>
